<svg xmlns="http://www.w3.org/2000/svg" width="400" height="300" viewBox="0 0 400 300">
  <defs>
    <linearGradient id="bg" x1="0%" y1="0%" x2="100%" y2="100%">
      <stop offset="0%" style="stop-color:#8B5CF6"/>
      <stop offset="100%" style="stop-color:#7C3AED"/>
    </linearGradient>
    <linearGradient id="bookShade" x1="0%" y1="0%" x2="100%" y2="0%">
      <stop offset="0%" style="stop-color:rgba(255,255,255,0.25)"/>
      <stop offset="100%" style="stop-color:rgba(255,255,255,0.08)"/>
    </linearGradient>
  </defs>

  <!-- Background -->
  <rect width="400" height="300" fill="url(#bg)"/>

  <!-- Decorative circles -->
  <circle cx="370" cy="30" r="70" fill="rgba(255,255,255,0.05)"/>
  <circle cx="30" cy="270" r="80" fill="rgba(255,255,255,0.04)"/>
  <circle cx="350" cy="250" r="40" fill="rgba(255,255,255,0.03)"/>

  <!-- Decorative lines -->
  <line x1="30" y1="30" x2="90" y2="30" stroke="rgba(255,255,255,0.15)" stroke-width="2"/>
  <line x1="30" y1="38" x2="65" y2="38" stroke="rgba(255,255,255,0.10)" stroke-width="2"/>
  <line x1="310" y1="270" x2="370" y2="270" stroke="rgba(255,255,255,0.15)" stroke-width="2"/>
  <line x1="335" y1="262" x2="370" y2="262" stroke="rgba(255,255,255,0.10)" stroke-width="2"/>

  <!-- Book icon -->
  <rect x="160" y="70" width="80" height="100" rx="3" fill="url(#bookShade)" stroke="rgba(255,255,255,0.6)" stroke-width="2"/>
  <line x1="200" y1="70" x2="200" y2="170" stroke="rgba(255,255,255,0.4)" stroke-width="1.5"/>
  <!-- Page lines left -->
  <line x1="172" y1="90" x2="194" y2="90" stroke="rgba(255,255,255,0.4)" stroke-width="1.5"/>
  <line x1="172" y1="100" x2="194" y2="100" stroke="rgba(255,255,255,0.3)" stroke-width="1.5"/>
  <line x1="172" y1="110" x2="194" y2="110" stroke="rgba(255,255,255,0.3)" stroke-width="1.5"/>
  <line x1="172" y1="120" x2="190" y2="120" stroke="rgba(255,255,255,0.25)" stroke-width="1.5"/>
  <line x1="172" y1="130" x2="194" y2="130" stroke="rgba(255,255,255,0.3)" stroke-width="1.5"/>
  <line x1="172" y1="140" x2="188" y2="140" stroke="rgba(255,255,255,0.25)" stroke-width="1.5"/>
  <!-- Page lines right -->
  <line x1="206" y1="90" x2="228" y2="90" stroke="rgba(255,255,255,0.4)" stroke-width="1.5"/>
  <line x1="206" y1="100" x2="228" y2="100" stroke="rgba(255,255,255,0.3)" stroke-width="1.5"/>
  <line x1="206" y1="110" x2="228" y2="110" stroke="rgba(255,255,255,0.3)" stroke-width="1.5"/>
  <line x1="206" y1="120" x2="224" y2="120" stroke="rgba(255,255,255,0.25)" stroke-width="1.5"/>
  <line x1="206" y1="130" x2="228" y2="130" stroke="rgba(255,255,255,0.3)" stroke-width="1.5"/>
  <line x1="206" y1="140" x2="220" y2="140" stroke="rgba(255,255,255,0.25)" stroke-width="1.5"/>
  <!-- Book spine shadow -->
  <rect x="158" y="72" width="4" height="96" rx="1" fill="rgba(0,0,0,0.15)"/>

  <!-- Title text -->
  <text x="200" y="210" font-family="'Segoe UI', Arial, Helvetica, sans-serif" font-size="22" font-weight="bold" fill="white" text-anchor="middle" letter-spacing="0.5">Diritto Privato</text>

  <!-- Subtitle line -->
  <line x1="145" y1="222" x2="255" y2="222" stroke="rgba(255,255,255,0.3)" stroke-width="1"/>

  <!-- Category label -->
  <text x="200" y="240" font-family="'Segoe UI', Arial, Helvetica, sans-serif" font-size="11" fill="rgba(255,255,255,0.6)" text-anchor="middle" letter-spacing="1">GIURISPRUDENZA</text>

  <!-- UniPass watermark -->
  <text x="200" y="280" font-family="'Segoe UI', Arial, Helvetica, sans-serif" font-size="14" font-weight="bold" fill="rgba(255,255,255,0.35)" text-anchor="middle" letter-spacing="3">UniPass</text>
</svg>